<?xml version="1.0" encoding="UTF-8"?>
<svg xmlns="http://www.w3.org/2000/svg" viewBox="0 0 1100 780" width="1100" height="780" font-family="Arial, sans-serif">
  <rect width="1100" height="780" fill="#f8f6f2"/>
  <text x="550" y="36" text-anchor="middle" font-size="20" font-weight="bold" fill="#1a1a2e">Схема данных — Мебельный магазин</text>

  <defs>
    <marker id="arr" viewBox="0 0 10 10" refX="9" refY="5" markerWidth="6" markerHeight="6" orient="auto">
      <path d="M1 1L9 5L1 9" fill="none" stroke="#5a5a8a" stroke-width="1.5"/>
    </marker>
  </defs>

  <!-- Категории -->
  <rect x="20" y="60" width="180" height="110" rx="4" fill="#ddeeff" stroke="#3a3a5c" stroke-width="1.5"/>
  <rect x="20" y="60" width="180" height="28" rx="4" fill="#3a3a5c"/>
  <text x="110" y="79" text-anchor="middle" font-size="13" font-weight="bold" fill="white">Категории</text>
  <text x="30" y="104" font-size="11" font-weight="bold" fill="#1a1a2e">id PK</text>
  <text x="30" y="120" font-size="11" fill="#333">название</text>
  <text x="30" y="136" font-size="11" fill="#333">описание</text>
  <rect x="20" y="88" width="180" height="1" fill="#aac"/>

  <!-- Товары -->
  <rect x="250" y="60" width="200" height="158" rx="4" fill="#ddeeff" stroke="#3a3a5c" stroke-width="1.5"/>
  <rect x="250" y="60" width="200" height="28" rx="4" fill="#3a3a5c"/>
  <text x="350" y="79" text-anchor="middle" font-size="13" font-weight="bold" fill="white">Товары</text>
  <text x="260" y="104" font-size="11" font-weight="bold" fill="#1a1a2e">id PK</text>
  <text x="260" y="120" font-size="11" font-style="italic" fill="#555">id_категории FK</text>
  <text x="260" y="136" font-size="11" fill="#333">наименование</text>
  <text x="260" y="152" font-size="11" fill="#333">производитель</text>
  <text x="260" y="168" font-size="11" fill="#333">цена</text>
  <text x="260" y="184" font-size="11" fill="#333">остаток</text>
  <text x="260" y="200" font-size="11" fill="#333">описание</text>
  <rect x="250" y="88" width="200" height="1" fill="#aac"/>

  <!-- СтрокиЗаказа -->
  <rect x="510" y="60" width="195" height="142" rx="4" fill="#eeffdd" stroke="#3a5c3a" stroke-width="1.5"/>
  <rect x="510" y="60" width="195" height="28" rx="4" fill="#3a5c3a"/>
  <text x="607" y="79" text-anchor="middle" font-size="13" font-weight="bold" fill="white">СтрокиЗаказа</text>
  <text x="520" y="104" font-size="11" font-weight="bold" fill="#1a1a2e">id PK</text>
  <text x="520" y="120" font-size="11" font-style="italic" fill="#555">id_заказа FK</text>
  <text x="520" y="136" font-size="11" font-style="italic" fill="#555">id_товара FK</text>
  <text x="520" y="152" font-size="11" fill="#333">количество</text>
  <text x="520" y="168" font-size="11" fill="#333">цена_единицы</text>
  <rect x="510" y="88" width="195" height="1" fill="#aca"/>

  <!-- Заказы -->
  <rect x="755" y="60" width="200" height="174" rx="4" fill="#eeffdd" stroke="#3a5c3a" stroke-width="1.5"/>
  <rect x="755" y="60" width="200" height="28" rx="4" fill="#3a5c3a"/>
  <text x="855" y="79" text-anchor="middle" font-size="13" font-weight="bold" fill="white">Заказы</text>
  <text x="765" y="104" font-size="11" font-weight="bold" fill="#1a1a2e">id PK</text>
  <text x="765" y="120" font-size="11" font-style="italic" fill="#555">id_клиента FK</text>
  <text x="765" y="136" font-size="11" font-style="italic" fill="#555">id_сотрудника FK</text>
  <text x="765" y="152" font-size="11" fill="#333">дата_заказа</text>
  <text x="765" y="168" font-size="11" fill="#333">статус</text>
  <text x="765" y="184" font-size="11" fill="#333">итого</text>
  <text x="765" y="200" font-size="11" fill="#333">способ_оплаты</text>
  <rect x="755" y="88" width="200" height="1" fill="#aca"/>

  <!-- Доставки -->
  <rect x="755" y="290" width="200" height="142" rx="4" fill="#eeffdd" stroke="#3a5c3a" stroke-width="1.5"/>
  <rect x="755" y="290" width="200" height="28" rx="4" fill="#3a5c3a"/>
  <text x="855" y="309" text-anchor="middle" font-size="13" font-weight="bold" fill="white">Доставки</text>
  <text x="765" y="334" font-size="11" font-weight="bold" fill="#1a1a2e">id PK</text>
  <text x="765" y="350" font-size="11" font-style="italic" fill="#555">id_заказа FK</text>
  <text x="765" y="366" font-size="11" fill="#333">адрес_доставки</text>
  <text x="765" y="382" font-size="11" fill="#333">дата_доставки</text>
  <text x="765" y="398" font-size="11" fill="#333">курьер</text>
  <text x="765" y="414" font-size="11" fill="#333">статус</text>
  <rect x="755" y="318" width="200" height="1" fill="#aca"/>

  <!-- Клиенты -->
  <rect x="755" y="480" width="200" height="126" rx="4" fill="#fff0dd" stroke="#5c4a1a" stroke-width="1.5"/>
  <rect x="755" y="480" width="200" height="28" rx="4" fill="#5c4a1a"/>
  <text x="855" y="499" text-anchor="middle" font-size="13" font-weight="bold" fill="white">Клиенты</text>
  <text x="765" y="524" font-size="11" font-weight="bold" fill="#1a1a2e">id PK</text>
  <text x="765" y="540" font-size="11" fill="#333">фио</text>
  <text x="765" y="556" font-size="11" fill="#333">телефон</text>
  <text x="765" y="572" font-size="11" fill="#333">email</text>
  <text x="765" y="588" font-size="11" fill="#333">адрес</text>
  <rect x="755" y="508" width="200" height="1" fill="#cca"/>

  <!-- Сотрудники -->
  <rect x="510" y="480" width="200" height="110" rx="4" fill="#fff0dd" stroke="#5c4a1a" stroke-width="1.5"/>
  <rect x="510" y="480" width="200" height="28" rx="4" fill="#5c4a1a"/>
  <text x="610" y="499" text-anchor="middle" font-size="13" font-weight="bold" fill="white">Сотрудники</text>
  <text x="520" y="524" font-size="11" font-weight="bold" fill="#1a1a2e">id PK</text>
  <text x="520" y="540" font-size="11" fill="#333">фио</text>
  <text x="520" y="556" font-size="11" fill="#333">должность</text>
  <text x="520" y="572" font-size="11" fill="#333">зарплата</text>
  <rect x="510" y="508" width="200" height="1" fill="#cca"/>

  <!-- Поставки -->
  <rect x="20" y="290" width="195" height="110" rx="4" fill="#ffeedd" stroke="#5c3a1a" stroke-width="1.5"/>
  <rect x="20" y="290" width="195" height="28" rx="4" fill="#5c3a1a"/>
  <text x="117" y="309" text-anchor="middle" font-size="13" font-weight="bold" fill="white">Поставки</text>
  <text x="30" y="334" font-size="11" font-weight="bold" fill="#1a1a2e">id PK</text>
  <text x="30" y="350" font-size="11" font-style="italic" fill="#555">id_поставщика FK</text>
  <text x="30" y="366" font-size="11" fill="#333">дата_поставки</text>
  <text x="30" y="382" font-size="11" fill="#333">сумма</text>
  <rect x="20" y="318" width="195" height="1" fill="#ca9"/>

  <!-- Поставщики -->
  <rect x="20" y="480" width="195" height="110" rx="4" fill="#ffeedd" stroke="#5c3a1a" stroke-width="1.5"/>
  <rect x="20" y="480" width="195" height="28" rx="4" fill="#5c3a1a"/>
  <text x="117" y="499" text-anchor="middle" font-size="13" font-weight="bold" fill="white">Поставщики</text>
  <text x="30" y="524" font-size="11" font-weight="bold" fill="#1a1a2e">id PK</text>
  <text x="30" y="540" font-size="11" fill="#333">название</text>
  <text x="30" y="556" font-size="11" fill="#333">контактное_лицо</text>
  <text x="30" y="572" font-size="11" fill="#333">телефон</text>
  <rect x="20" y="508" width="195" height="1" fill="#ca9"/>

  <!-- СтрокиПоставки -->
  <rect x="250" y="290" width="210" height="126" rx="4" fill="#ffeedd" stroke="#5c3a1a" stroke-width="1.5"/>
  <rect x="250" y="290" width="210" height="28" rx="4" fill="#5c3a1a"/>
  <text x="355" y="309" text-anchor="middle" font-size="13" font-weight="bold" fill="white">СтрокиПоставки</text>
  <text x="260" y="334" font-size="11" font-weight="bold" fill="#1a1a2e">id PK</text>
  <text x="260" y="350" font-size="11" font-style="italic" fill="#555">id_поставки FK</text>
  <text x="260" y="366" font-size="11" font-style="italic" fill="#555">id_товара FK</text>
  <text x="260" y="382" font-size="11" fill="#333">количество</text>
  <text x="260" y="398" font-size="11" fill="#333">закупочная_цена</text>
  <rect x="250" y="318" width="210" height="1" fill="#ca9"/>

  <!-- Связи -->
  <!-- Категории → Товары -->
  <line x1="200" y1="115" x2="250" y2="115" stroke="#5a5a8a" stroke-width="1.5" marker-end="url(#arr)"/>
  <text x="225" y="108" text-anchor="middle" font-size="10" fill="#666">1:N</text>

  <!-- Товары → СтрокиЗаказа -->
  <line x1="450" y1="130" x2="510" y2="130" stroke="#5a5a8a" stroke-width="1.5" marker-end="url(#arr)"/>
  <text x="480" y="123" text-anchor="middle" font-size="10" fill="#666">1:N</text>

  <!-- Заказы → СтрокиЗаказа -->
  <line x1="755" y1="130" x2="705" y2="130" stroke="#5a5a8a" stroke-width="1.5" marker-end="url(#arr)"/>
  <text x="730" y="123" text-anchor="middle" font-size="10" fill="#666">1:N</text>

  <!-- Заказы → Доставки -->
  <line x1="855" y1="234" x2="855" y2="290" stroke="#5a5a8a" stroke-width="1.5" marker-end="url(#arr)"/>
  <text x="868" y="265" font-size="10" fill="#666">1:1</text>

  <!-- Клиенты → Заказы -->
  <line x1="855" y1="480" x2="855" y2="434" stroke="#5a5a8a" stroke-width="1.5" marker-end="url(#arr)"/>
  <text x="868" y="460" font-size="10" fill="#666">1:N</text>

  <!-- Сотрудники → Заказы -->
  <line x1="610" y1="480" x2="780" y2="234" stroke="#5a5a8a" stroke-width="1.5" stroke-dasharray="5 3" marker-end="url(#arr)"/>
  <text x="690" y="370" font-size="10" fill="#666">1:N</text>

  <!-- Поставщики → Поставки -->
  <line x1="117" y1="480" x2="117" y2="400" stroke="#5a5a8a" stroke-width="1.5" marker-end="url(#arr)"/>
  <text x="130" y="443" font-size="10" fill="#666">1:N</text>

  <!-- Поставки → СтрокиПоставки -->
  <line x1="215" y1="345" x2="250" y2="345" stroke="#5a5a8a" stroke-width="1.5" marker-end="url(#arr)"/>
  <text x="232" y="338" text-anchor="middle" font-size="10" fill="#666">1:N</text>

  <!-- Товары → СтрокиПоставки -->
  <line x1="350" y1="218" x2="350" y2="290" stroke="#5a5a8a" stroke-width="1.5" marker-end="url(#arr)"/>
  <text x="363" y="257" font-size="10" fill="#666">1:N</text>

  <!-- Легенда -->
  <rect x="20" y="640" width="400" height="60" rx="4" fill="white" stroke="#ccc" stroke-width="1"/>
  <text x="30" y="660" font-size="11" font-weight="bold" fill="#333">Условные обозначения:</text>
  <rect x="30" y="668" width="30" height="12" rx="2" fill="#ddeeff" stroke="#3a3a5c"/>
  <text x="68" y="679" font-size="10" fill="#333">Каталог</text>
  <rect x="120" y="668" width="30" height="12" rx="2" fill="#eeffdd" stroke="#3a5c3a"/>
  <text x="158" y="679" font-size="10" fill="#333">Продажи</text>
  <rect x="210" y="668" width="30" height="12" rx="2" fill="#fff0dd" stroke="#5c4a1a"/>
  <text x="248" y="679" font-size="10" fill="#333">Контрагенты</text>
  <rect x="320" y="668" width="30" height="12" rx="2" fill="#ffeedd" stroke="#5c3a1a"/>
  <text x="358" y="679" font-size="10" fill="#333">Поставки</text>
  <line x1="30" y1="693" x2="60" y2="693" stroke="#5a5a8a" stroke-width="1.5" marker-end="url(#arr)"/>
  <text x="68" y="697" font-size="10" fill="#333">связь 1:N</text>
</svg>
